<?xml version="1.0" standalone="no"?>
<!DOCTYPE svg PUBLIC "-//W3C//DTD SVG 20010904//EN"
 "http://www.w3.org/TR/2001/REC-SVG-20010904/DTD/svg10.dtd">
<svg version="1.0" xmlns="http://www.w3.org/2000/svg"
 width="1024.000000pt" height="1024.000000pt" viewBox="0 0 1024.000000 1024.000000"
 preserveAspectRatio="xMidYMid meet">
<metadata>
Created by potrace 1.14, written by Peter Selinger 2001-2017
</metadata>
<g transform="translate(0.000000,1024.000000) scale(0.100000,-0.100000)"
fill="#000000" stroke="none">
<path d="M4968 10235 c-2 -1 -25 -5 -53 -9 -123 -15 -198 -33 -320 -76 -95
-33 -218 -88 -226 -102 -3 -5 -9 -9 -13 -9 -17 3 -25 -1 -46 -19 -13 -11 -29
-20 -36 -20 -7 0 -14 -3 -16 -7 -1 -5 -23 -21 -48 -38 -96 -63 -264 -218 -329
-302 -11 -16 -34 -45 -50 -66 -16 -21 -44 -61 -62 -90 -18 -29 -39 -63 -48
-77 -8 -14 -16 -27 -16 -30 0 -3 -15 -36 -34 -75 -18 -38 -36 -79 -41 -90 -15
-35 -49 -139 -54 -165 -2 -14 -9 -38 -16 -55 -6 -16 -10 -32 -8 -34 6 -9 -50
-18 -63 -11 -7 5 -21 4 -30 -1 -11 -6 -20 -5 -24 1 -3 6 -15 6 -30 0 -15 -6
-27 -6 -30 0 -3 6 -15 6 -30 0 -15 -6 -27 -6 -30 0 -3 6 -15 6 -30 0 -15 -6
-27 -6 -30 0 -3 6 -15 6 -30 0 -14 -5 -25 -6 -25 -2 0 7 -144 6 -165 -2 -6 -2
-18 0 -25 4 -8 5 -22 4 -31 -1 -11 -6 -20 -5 -24 1 -3 6 -15 6 -30 0 -15 -6
-27 -6 -30 0 -3 6 -15 6 -30 0 -15 -6 -27 -6 -30 0 -3 6 -15 6 -30 0 -15 -6
-27 -6 -30 0 -3 6 -15 6 -30 0 -14 -5 -25 -6 -25 -2 0 4 -28 6 -62 5 -116 -2
-285 -13 -299 -18 -14 -5 -59 -14 -94 -19 -11 -2 -20 -4 -20 -5 0 -2 -8 -4
-17 -6 -104 -20 -316 -122 -429 -207 -70 -53 -174 -150 -224 -209 -42 -49
-155 -226 -155 -242 0 -10 -4 -17 -9 -17 -5 0 -11 -9 -14 -20 -3 -11 -6 -24
-7 -28 -1 -4 -11 -24 -21 -44 -11 -21 -17 -38 -13 -38 4 0 2 -6 -3 -12 -13
-17 -50 -164 -62 -248 -12 -80 -9 -6734 2 -6770 5 -14 10 -38 13 -55 2 -16 7
-39 11 -50 4 -11 8 -26 9 -32 6 -36 48 -151 73 -201 90 -184 181 -303 332
-436 108 -95 301 -204 399 -227 3 0 10 -5 15 -9 6 -5 26 -12 45 -15 18 -3 37
-8 42 -11 5 -3 21 -8 36 -11 170 -32 149 -32 2852 -32 1629 0 2690 4 2730 10
83 12 231 49 248 62 6 5 12 7 12 3 0 -4 17 2 38 13 20 10 40 20 44 21 4 1 17
4 28 7 11 3 20 9 20 14 0 5 7 9 17 9 16 0 193 113 242 155 59 50 156 154 209
224 85 113 187 325 207 429 2 9 4 17 5 17 2 0 5 16 14 60 3 17 9 41 13 55 4
14 9 1530 10 3370 2 3431 3 3367 -31 3520 -9 43 -18 77 -26 95 -5 11 -14 38
-21 60 -11 37 -75 168 -117 240 -21 38 -118 159 -163 205 -54 56 -162 145
-222 184 -70 44 -140 81 -149 78 -5 -1 -8 3 -8 8 0 6 -7 10 -15 10 -8 0 -23 4
-33 9 -116 59 -284 95 -454 95 -54 1 -98 4 -98 8 0 4 -13 3 -30 -2 -16 -5 -30
-6 -30 -2 0 8 -205 6 -226 -2 -8 -3 -14 -2 -14 2 0 4 -65 7 -145 7 -80 0 -145
-3 -145 -7 0 -4 -11 -3 -25 2 -15 6 -27 6 -30 0 -3 -6 -15 -6 -29 0 -13 5 -27
6 -30 3 -7 -8 -76 -10 -76 -3 0 7 -78 3 -97 -4 -7 -3 -13 -1 -13 3 0 5 -8 7
-19 4 -19 -5 -29 10 -37 57 -3 14 -7 32 -11 40 -6 14 -9 26 -16 53 -2 6 -11
29 -20 51 -9 21 -17 43 -17 48 0 12 -115 243 -130 261 -6 6 -27 37 -48 68 -86
131 -256 308 -372 389 -19 13 -37 27 -40 30 -19 21 -199 119 -290 158 -52 23
-193 69 -230 76 -14 3 -36 8 -50 11 -27 6 -67 13 -115 22 -33 5 -361 13 -367
8z m309 -983 c206 -79 324 -251 318 -462 -3 -103 -6 -115 -45 -198 -40 -85
-137 -182 -222 -222 -85 -39 -137 -50 -233 -46 -211 9 -389 156 -443 366 -11
46 -8 188 5 234 50 168 164 283 333 337 75 23 215 19 287 -9z m-2657 -1252 c9
5 22 5 30 0 8 -5 21 -5 31 1 11 6 20 5 24 -1 3 -6 15 -6 30 0 15 6 27 6 30 0
3 -5 15 -6 29 0 12 4 28 5 34 1 7 -4 31 -6 53 -4 l41 3 -5 -32 c-3 -18 -10
-55 -16 -83 -6 -27 -13 -69 -15 -93 -2 -24 -6 -46 -9 -48 -3 -3 -1 -19 3 -35
5 -18 5 -41 0 -54 -5 -14 -6 -27 0 -30 5 -3 5 -18 0 -35 -5 -17 -5 -32 0 -35
5 -3 6 -15 0 -29 -4 -12 -4 -29 0 -36 5 -8 5 -21 0 -29 -4 -8 -4 -25 1 -38 5
-14 5 -23 -1 -23 -5 0 -8 -6 -5 -12 2 -7 6 -33 9 -58 9 -82 34 -137 89 -192
57 -58 123 -89 197 -93 32 -2 64 -6 69 -9 5 -4 12 -2 16 3 4 7 15 7 30 1 14
-5 25 -6 25 -2 0 4 47 7 105 7 58 0 105 -3 105 -7 0 -4 11 -3 25 2 14 5 27 5
30 0 3 -5 18 -5 35 0 18 5 30 5 30 0 0 -6 10 -6 25 0 15 6 27 6 30 0 3 -6 15
-6 30 0 15 6 27 6 30 0 4 -6 13 -7 24 -1 9 5 23 6 31 1 7 -4 19 -6 25 -4 21 8
165 9 165 2 0 -4 11 -3 25 2 14 5 27 5 30 0 3 -5 18 -5 35 0 18 5 30 5 30 0 0
-6 10 -6 25 0 15 6 27 6 30 0 3 -6 15 -6 30 0 15 6 27 6 30 0 4 -6 13 -7 24
-1 10 6 23 6 31 1 8 -5 18 -6 23 -3 12 7 185 6 197 -2 6 -3 10 -3 10 2 0 4 38
8 85 8 47 0 85 -3 85 -7 0 -4 11 -3 25 2 15 6 26 6 30 -1 4 -5 13 -6 22 0 9 5
29 5 45 1 15 -5 28 -6 28 -2 0 4 38 7 85 7 47 0 85 -3 85 -7 0 -4 11 -3 25 2
15 6 27 6 30 0 3 -5 13 -6 22 -3 15 6 73 7 91 3 4 -1 12 -1 17 0 24 5 113 2
123 -4 6 -3 13 -2 17 3 4 7 15 7 30 1 15 -6 25 -6 25 0 0 5 12 5 29 0 15 -4
34 -4 42 0 7 5 21 4 30 -1 11 -6 20 -5 24 1 3 6 15 6 30 0 15 -6 27 -6 30 0 3
6 15 6 30 0 15 -6 25 -6 25 0 0 5 12 5 30 0 17 -5 30 -5 30 0 0 5 13 5 30 0
17 -5 30 -5 30 -1 0 7 86 5 108 -4 6 -2 12 -1 12 3 0 4 38 7 85 7 47 0 85 -2
85 -5 0 -3 16 -5 35 -5 19 0 35 2 35 5 0 3 38 5 85 5 47 0 85 -3 85 -7 0 -4
14 -3 30 2 17 5 30 5 30 1 0 -4 25 -4 56 -1 30 3 57 2 60 -2 3 -5 10 -6 15 -2
14 8 113 9 127 0 6 -3 13 -2 17 3 4 7 15 7 30 1 15 -6 25 -6 25 0 0 5 12 5 29
0 15 -4 34 -4 42 0 7 5 21 4 30 -1 11 -6 20 -5 24 1 3 6 15 6 30 0 15 -6 27
-6 30 0 3 6 15 6 30 0 15 -6 25 -6 25 0 0 5 12 5 30 0 17 -5 30 -6 30 -2 0 4
30 7 68 8 73 1 94 5 132 23 110 52 172 139 185 257 4 32 9 61 10 64 2 3 0 12
-5 20 -5 8 -5 21 0 30 5 9 5 22 0 30 -5 8 -5 21 0 30 5 9 5 22 0 30 -5 8 -5
21 0 30 5 9 5 22 0 30 -5 8 -5 21 0 30 5 9 5 22 0 30 -5 8 -5 21 0 31 5 9 7
19 3 22 -3 4 -7 30 -9 59 -4 70 -10 113 -25 171 -8 34 -9 51 -1 59 11 11 273
15 290 4 6 -4 13 -2 17 4 4 6 11 7 17 4 6 -4 34 -8 64 -9 67 -4 136 -37 191
-93 39 -39 52 -60 80 -132 9 -24 16 -149 13 -250 -1 -25 -2 -52 -1 -60 0 -8 0
-42 0 -75 0 -33 0 -66 0 -72 2 -27 2 -41 2 -118 -1 -170 -1 -222 0 -285 0 -36
0 -72 0 -80 0 -8 0 -73 0 -145 0 -71 0 -134 0 -140 0 -5 0 -19 -1 -30 -1 -11
-1 -47 -1 -80 0 -62 0 -67 0 -150 0 -27 0 -54 0 -60 0 -116 1 -223 2 -275 0
-36 0 -71 0 -77 0 -24 0 -233 1 -245 0 -7 0 -31 -1 -53 -2 -53 -3 -167 -2
-182 1 -7 2 -19 2 -25 1 -7 1 -35 0 -63 -2 -52 -3 -259 -2 -285 1 -8 0 -35 0
-60 0 -25 -1 -52 0 -60 0 -8 0 -42 0 -75 0 -33 0 -66 0 -72 2 -27 2 -41 2
-118 -1 -170 -1 -222 0 -285 0 -36 0 -72 0 -80 0 -8 0 -73 0 -145 0 -71 0
-134 0 -140 0 -5 0 -19 -1 -30 -1 -11 -1 -47 -1 -80 0 -62 0 -67 0 -150 0 -27
0 -54 0 -60 0 -116 1 -223 2 -275 0 -36 0 -71 0 -77 0 -24 0 -233 1 -245 0 -7
0 -31 -1 -53 -2 -53 -3 -167 -2 -182 1 -7 2 -19 2 -25 1 -7 1 -35 0 -63 -2
-52 -3 -259 -2 -285 1 -8 0 -35 0 -60 0 -25 -1 -52 0 -60 0 -8 0 -42 0 -75 0
-33 0 -66 0 -72 2 -27 2 -41 2 -118 -1 -170 -1 -222 0 -285 0 -36 0 -72 0 -80
0 -8 0 -73 0 -145 0 -71 0 -137 0 -145 -1 -8 0 -37 0 -65 1 -55 1 -53 -5 -110
-2 -22 -4 -40 -6 -40 -1 0 -3 -10 -6 -22 -9 -48 -54 -108 -129 -171 -29 -25
-133 -54 -190 -54 -5 0 -39 1 -75 1 -97 1 -100 1 -170 0 -36 -1 -69 -1 -75 0
-20 0 -430 0 -445 0 -8 -1 -33 -1 -55 0 -39 2 -225 3 -255 2 -14 0 -83 0 -105
0 -5 1 -66 0 -135 0 -69 0 -186 -1 -260 -1 -74 -1 -143 -1 -152 -1 -10 0 -47
0 -83 0 -36 0 -77 0 -92 0 -16 -1 -57 0 -93 0 -94 1 -98 1 -170 0 -36 -1 -72
-1 -80 0 -8 0 -116 0 -240 0 -124 0 -229 0 -235 0 -23 0 -222 0 -240 0 -36 0
-390 0 -400 0 -5 0 -57 0 -115 0 -58 0 -114 0 -125 0 -25 0 -227 0 -240 0 -5
-1 -39 0 -75 0 -97 1 -100 1 -170 0 -36 -1 -69 -1 -75 0 -20 0 -430 0 -445 0
-8 -1 -33 -1 -55 0 -39 2 -225 3 -255 2 -161 -6 -274 5 -325 30 -56 28 -124
91 -144 134 -7 17 -18 39 -24 50 -11 21 -17 122 -17 260 1 44 1 89 1 100 0 11
0 40 0 65 0 25 0 52 0 60 0 8 0 40 0 70 0 30 0 61 0 68 -1 6 -1 18 -2 25 0 6
0 66 0 132 0 66 0 127 0 135 0 8 0 38 0 65 0 28 0 57 0 65 -1 8 -1 31 0 50 2
38 3 148 2 168 0 6 0 51 -1 100 0 48 0 116 -1 152 0 36 0 72 0 80 0 8 0 74 0
145 0 72 0 135 0 140 0 6 0 19 1 30 1 11 1 47 1 80 0 62 0 67 0 150 0 28 0 55
0 60 0 116 -1 223 -2 275 0 36 0 71 0 78 0 23 0 232 -1 245 0 6 0 30 1 52 2
53 3 167 2 183 -2 26 -2 40 -2 117 1 170 1 222 0 285 0 36 0 72 0 80 0 8 0 74
0 145 0 72 0 135 0 140 0 6 0 19 1 30 1 11 1 47 1 80 0 62 0 67 0 150 0 28 0
55 0 60 0 116 -1 223 -2 275 0 36 0 71 0 78 0 23 0 232 -1 245 0 6 0 30 1 52
2 53 3 167 2 183 -2 26 -2 40 -2 117 1 170 1 222 0 285 0 36 0 72 0 80 0 8 0
74 0 145 0 72 0 135 0 140 0 6 0 19 1 30 1 11 1 47 1 80 0 62 0 67 0 150 0 28
0 57 0 65 0 39 0 236 1 245 0 6 -1 35 -2 65 -1 67 6 219 13 240 34 115 146
210 262 226 28 3 52 8 54 10 2 2 11 -1 20 -5 8 -5 23 -6 31 -1z"/>
</g>
</svg>
